<?xml version="1.0" encoding="UTF-8" standalone="no"?>
<svg class="w-10 h-10"
   xmlns:dc="http://purl.org/dc/elements/1.1/"
   xmlns:cc="http://creativecommons.org/ns#"
   xmlns:rdf="http://www.w3.org/1999/02/22-rdf-syntax-ns#"
   xmlns:svg="http://www.w3.org/2000/svg"
   xmlns="http://www.w3.org/2000/svg"
   xmlns:xlink="http://www.w3.org/1999/xlink"
   xmlns:sodipodi="http://sodipodi.sourceforge.net/DTD/sodipodi-0.dtd"
   xmlns:inkscape="http://www.inkscape.org/namespaces/inkscape"
   version="1.1"
   id="svg833"
   width="281.50214"
   height="339.03754"
   viewBox="0 0 281.50213 339.03754"
   sodipodi:docname="profile pic.svg"
   inkscape:version="1.0.2 (e86c870879, 2021-01-15, custom)">
  <metadata
     id="metadata839">
    <rdf:RDF>
      <cc:Work
         rdf:about="">
        <dc:format>image/svg+xml</dc:format>
        <dc:type
           rdf:resource="http://purl.org/dc/dcmitype/StillImage" />
        <dc:title></dc:title>
      </cc:Work>
    </rdf:RDF>
  </metadata>
  <defs
     id="defs837" />
  <g
     inkscape:groupmode="layer"
     inkscape:label="Image"
     id="g841"
     transform="translate(-183.67928,-6.5624705)">
    <image
       sodipodi:absref="C:\Users\vvice\Pictures\1.png"
       xlink:href="1.png"
       y="0"
       x="0"
       id="image855"
       preserveAspectRatio="none"
       height="345.60001"
       width="614.40002" />
    <path
       style="fill:#008152;fill-opacity:1;stroke-width:0.32"
       d="m 183.87424,345.09383 c -0.32937,-0.85833 -0.21429,-12.10384 0.14256,-13.93014 0.18524,-0.94803 0.38686,-2.94768 0.44806,-4.44368 0.24032,-5.87472 0.84458,-11.5085 1.47789,-13.77909 0.36525,-1.3095 0.79166,-3.82091 0.94758,-5.58091 1.02238,-11.54063 0.89112,-10.83975 3.35592,-17.92 3.59266,-10.32008 5.96486,-17.66537 6.56244,-20.32 1.36243,-6.05225 6.2237,-19.11487 8.45088,-22.70817 0.38584,-0.6225 1.10384,-2.28383 1.59555,-3.69183 0.97025,-2.77825 3.79813,-8.31976 6.45032,-12.64 9.46058,-15.41069 10.61167,-16.90779 20.92059,-27.20918 5.49137,-5.48736 7.3381,-7.10687 11.21398,-9.83426 2.552,-1.79579 5.5397,-3.8998 6.63934,-4.67556 1.09964,-0.77577 2.89964,-1.85482 4,-2.39788 3.69988,-1.82603 12.54098,-5.86618 14.80066,-6.76352 1.232,-0.48923 3.13066,-1.25093 4.21924,-1.69264 1.08858,-0.44173 2.96058,-1.03714 4.16,-1.32315 1.19942,-0.28601 2.80014,-0.68115 3.55717,-0.8781 l 1.37641,-0.35808 -2.65641,-0.871 c -1.46103,-0.47905 -3.59241,-1.32216 -4.73641,-1.87357 -1.144,-0.5514 -2.2246,-1.00267 -2.40134,-1.00281 -0.75702,-6.4e-4 -10.75306,-5.64943 -12.79866,-7.23262 -3.76765,-2.91595 -7.73599,-6.58641 -9.3476,-8.64592 -3.4795,-4.44653 -5.99377,-8.38248 -8.20342,-12.84202 -1.28621,-2.59583 -3.57208,-7.17278 -5.0797,-10.171 -3.74122,-7.4402 -3.99146,-8.3471 -5.38277,-19.5087 -0.50332,-4.03776 0.9989,-17.654548 2.5771,-23.359997 0.69107,-2.498343 1.3798,-5.215601 2.23048,-8.800001 2.03651,-8.580909 2.88995,-11.157075 4.76523,-14.384083 0.77217,-1.328756 1.94388,-3.376336 2.6038,-4.550183 0.65993,-1.173846 1.83613,-2.973846 2.61379,-4 1.65309,-2.181325 4.0523,-5.56553 5.83617,-8.232218 0.69407,-1.037565 2.21129,-2.837565 3.37158,-4 1.1603,-1.162435 2.42763,-2.63001 2.8163,-3.261283 1.50003,-2.436333 4.6733,-5.989511 7.33418,-8.212234 1.52753,-1.276 2.90273,-2.32 3.056,-2.32 0.15327,0 1.38797,-0.636822 2.74377,-1.415159 2.8295,-1.624356 4.90047,-2.446956 10.93366,-4.342896 2.36971,-0.744686 4.74573,-1.687418 5.28005,-2.094958 0.53431,-0.407541 2.10907,-1.045836 3.49946,-1.418434 1.3904,-0.372598 2.75837,-0.800513 3.03995,-0.950921 0.5141,-0.274607 5.61153,-1.123318 9.79197,-1.630339 4.06544,-0.493074 5.18714,-0.871669 8,-2.700147 4.52342,-2.940413 5.47707,-3.49009 7.30064,-4.208017 1.08864,-0.428595 2.5937,-1.074 3.34454,-1.434234 1.83661,-0.881144 4.9665,-1.298772 6.74557,-0.900073 1.77946,0.398781 2.36343,0.714765 3.92007,2.121087 1.5504,1.400704 2.4135,1.310434 4.96931,-0.519729 2.8535,-2.043343 6.12803,-2.3299446 8.77251,-0.76781 0.83754,0.494741 0.96704,0.463074 3.86695,-0.945526 1.65024,-0.8015762 3.36041,-1.560663 3.80041,-1.6868598 0.44,-0.1261968 1.664,-0.6666739 2.72,-1.2010602 2.66455,-1.3483939 5.07783,-1.3628458 7.50179,-0.044925 0.95088,0.517 2.09997,1.4460676 2.55354,2.0645943 0.80051,1.0916657 0.85747,1.1132767 1.94467,0.7380617 2.49843,-0.8622498 5.86669,-0.154839 8.56311,1.798437 2.62924,1.904619 3.72476,6.155255 2.35536,9.138908 -0.32311,0.704 -1.629,2.622974 -2.90192,4.264388 -1.27293,1.641414 -2.26541,3.021894 -2.20551,3.067734 0.0599,0.04584 0.95287,0.558535 1.98432,1.139323 3.84173,2.163215 8.12861,6.222763 10.32557,9.778024 0.32947,0.533206 1.26486,1.901206 2.07859,3.04 1.40199,1.962006 6.73898,11.233946 8.65165,15.030532 4.14986,8.237203 7.55005,18.905111 9.06032,28.426288 0.61175,3.856641 0.80851,6.309313 0.80851,10.077988 0,5.611432 -0.45216,11.999972 -1.10243,15.575722 -0.24003,1.32 -0.61302,3.47619 -0.82886,4.79153 -0.21581,1.31533 -0.67277,3.18733 -1.01546,4.16 -0.34272,0.97266 -1.9615,5.65647 -3.59731,10.40847 -1.63584,4.752 -3.42461,9.61561 -3.9751,10.80802 -0.55047,1.19241 -1.00084,2.2405 -1.00084,2.3291 0,0.0886 -0.48333,1.201 -1.07405,2.47199 -0.59075,1.27099 -1.63475,3.53428 -2.32,5.02953 -1.16889,2.55054 -6.11107,9.58922 -8.8072,12.54332 -1.86848,2.04725 -8.67052,7.62712 -10.83875,8.89128 -5.00585,2.91861 -8.49011,4.80677 -8.87001,4.80677 -0.22548,0 -0.40999,0.144 -0.40999,0.32 0,0.176 0.26234,0.32 0.58301,0.32 0.32064,0 1.22064,0.20213 2,0.44919 0.77933,0.24706 2.45309,0.68667 3.71946,0.9769 1.26633,0.29024 3.21033,0.89367 4.32,1.34095 1.10963,0.44728 4.39353,1.64733 7.29753,2.66677 2.904,1.01944 6.864,2.53163 8.8,3.36043 1.936,0.82879 4.51549,1.92862 5.73216,2.44407 3.84055,1.62701 11.66807,6.21893 13.96199,8.19063 0.78422,0.67407 2.21785,1.83813 3.18585,2.58681 6.06548,4.69119 12.92788,10.69339 17.05188,14.91443 2.1559,2.20666 9.74851,12.91266 12.46051,17.57006 3.21776,5.52592 5.50195,10.76042 7.70627,17.65976 2.27414,7.11799 2.73485,9.03702 3.91805,16.32 0.28592,1.76 0.86579,4.928 1.28861,7.04 1.54777,7.73126 2.6632,15.16175 3.02627,20.16 0.20458,2.816 0.94339,8.504 1.64182,12.64 0.69844,4.136 1.41757,8.4339 1.59808,9.5509 0.18052,1.11699 0.2688,3.42099 0.1962,5.11998 -0.0726,1.69901 -0.006,7.19312 0.14864,12.20912 0.15436,5.016 0.19148,9.732 0.0826,10.48 l -0.19808,1.36 H 324.49463 c -127.75508,0 -140.44368,-0.0457 -140.62039,-0.50618 z M 333.12001,155.23656 c 1.32,-0.2179 3.13267,-0.60327 4.02813,-0.85637 0.89546,-0.2531 1.98349,-0.46019 2.41786,-0.46019 1.23916,0 5.28883,-1.61798 8.31398,-3.32173 3.75696,-2.11588 7.84598,-6.01651 9.3769,-8.94484 0.92441,-1.7682 1.14179,-2.53356 1.13609,-4 -0.023,-5.91232 -6.19737,-9.84236 -11.39443,-7.25256 -1.0143,0.50546 -2.46845,1.73796 -3.94224,3.3414 -2.29331,2.49508 -2.88621,2.89184 -7.21629,4.82915 -2.11043,0.94421 -9.6471,1.47866 -14.07165,0.99787 -4.02899,-0.43781 -5.69101,-1.3111 -7.23366,-3.80083 -0.76518,-1.23494 -1.65965,-2.16709 -2.69491,-2.80846 -1.39069,-0.86155 -1.81726,-0.96 -4.15978,-0.96 -2.34688,0 -2.7682,0.0977 -4.17663,0.96846 -0.97225,0.6011 -1.93382,1.5632 -2.53491,2.53632 -0.8857,1.43388 -0.96712,1.80231 -0.9528,4.31154 0.0215,3.77086 1.1474,6.52593 3.64899,8.92936 0.97644,0.93812 2.35135,2.04065 3.05535,2.45008 1.70609,0.99221 9.11957,3.56299 11.4921,3.98512 1.04066,0.18516 1.9711,0.41566 2.06764,0.51222 0.31047,0.31043 10.35834,-0.0468 12.84026,-0.45654 z m 32.44288,-43.30572 c 0.82704,-0.24436 1.91888,-0.98851 2.93443,-2 2.53165,-2.52153 2.84372,-4.03888 2.5689,-12.490837 -0.12019,-3.696 -0.34554,-7.224 -0.50077,-7.84 -1.22896,-4.876791 -1.33779,-5.529284 -1.15904,-6.950541 0.59687,-4.745837 0.5928,-5.418209 -0.0413,-6.845383 -0.90256,-2.031341 -2.11206,-3.320669 -3.99542,-4.259197 -4.48071,-2.232832 -9.7794,0.269302 -11.28148,5.327322 -0.69091,2.326576 -0.67539,10.381293 0.0246,12.738263 0.28199,0.949644 0.65156,3.603779 0.82125,5.89808 0.37968,5.134283 0.38973,5.973383 0.0966,8.093783 -0.35523,2.57016 0.28647,4.3909 2.23162,6.33199 0.88976,0.88787 2.12173,1.77317 2.73773,1.96733 1.53507,0.48384 3.98064,0.49668 5.56288,0.0292 z m -76.86107,-1.26716 c 1.57291,-0.47126 3.84423,-2.44216 4.56511,-3.96132 0.999,-2.10522 1.56417,-6.97846 1.68346,-14.515564 0.0924,-5.836573 0.0218,-7.44224 -0.37843,-8.617005 -0.27913,-0.819219 -0.49499,-2.561184 -0.49898,-4.026793 -0.0108,-3.971309 -1.41178,-6.437607 -4.54331,-7.998116 -4.08826,-2.037264 -8.86878,-0.21568 -10.85211,4.13512 -0.77552,1.701248 -0.85467,8.845172 -0.11755,10.609357 0.56422,1.350381 0.64333,8.866781 0.12072,11.470644 -0.58722,2.925787 -0.69437,6.202277 -0.25442,7.780007 0.50445,1.80906 3.07606,4.54655 4.7737,5.08164 1.52052,0.47926 3.97976,0.49805 5.50181,0.042 z"
       id="path873" />
    <image
       sodipodi:absref="C:\Users\vvice\Pictures\3.png"
       xlink:href="3.png"
       y="0"
       x="0"
       id="image869"
       preserveAspectRatio="none"
       height="345.60001"
       width="614.40002" />
    <path
       style="fill:#000000;stroke-width:0.32"
       d="m 319.36001,155.32478 c -1.32,-0.2369 -4.55236,-1.18157 -7.18302,-2.09928 -7.15227,-2.49508 -9.84346,-4.78033 -11.50504,-9.76959 -1.4193,-4.26177 -1.01556,-6.65397 1.55722,-9.22675 3.88873,-3.88873 9.4765,-3.04407 12.29346,1.8583 0.81247,1.41393 1.27313,1.82092 2.97923,2.63211 l 2.01815,0.95957 7.2927,-0.0482 c 7.01034,-0.0464 7.35725,-0.0785 8.96,-0.82892 0.91703,-0.42938 2.27009,-1.03719 3.00682,-1.35069 0.79661,-0.339 2.57005,-1.78862 4.37581,-3.57688 3.36826,-3.33559 4.63808,-4.04333 7.27347,-4.0539 4.32259,-0.0173 7.73338,3.43759 7.75069,7.85101 0.0106,2.66139 -1.39248,5.20245 -4.5241,8.19434 -4.62595,4.41959 -8.92851,6.80594 -14.29539,7.92875 -9.95094,2.08184 -14.84115,2.45598 -20,1.53016 z m 40.87936,-43.44171 c -1.86736,-0.69691 -3.21206,-1.89231 -4.22755,-3.75813 -0.79309,-1.45716 -0.91885,-2.01072 -0.84467,-3.71848 0.16534,-3.80717 0.12752,-5.380659 -0.22711,-9.447568 -0.19574,-2.244611 -0.57731,-4.826745 -0.84796,-5.73808 -0.77581,-2.612454 -0.67968,-9.821021 0.16432,-12.320227 2.00265,-5.930199 8.38684,-7.898554 12.86515,-3.966551 2.30518,2.023978 2.80454,4.000461 2.31773,9.173508 -0.15936,1.693129 -0.11981,2.965161 0.1144,3.68 0.76332,2.329798 1.3183,6.813203 1.52438,12.314618 0.17904,4.78048 0.12922,6.0315 -0.29869,7.49784 -1.20557,4.13108 -3.69667,6.36854 -7.35209,6.60346 -1.2248,0.0787 -2.44794,-0.0442 -3.18791,-0.32039 z m -76.80001,-1.28 c -1.86216,-0.69498 -3.21132,-1.89099 -4.21651,-3.73784 -1.07506,-1.97525 -1.23716,-4.31374 -0.58284,-8.408382 0.58067,-3.633757 0.51764,-10.585949 -0.11848,-13.068974 -0.7412,-2.89318 -0.49562,-7.933014 0.48528,-9.959296 1.35302,-2.794957 4.0143,-4.480883 7.0732,-4.480883 2.07023,0 3.60808,0.587264 5.20154,1.986339 1.82297,1.600599 2.50021,3.365834 2.80449,7.309956 0.14579,1.889808 0.41664,4.012012 0.60189,4.716012 0.4188,1.591578 0.45809,11.74322 0.0535,13.82425 -0.16421,0.844663 -0.46978,2.723518 -0.67904,4.175238 -0.71358,4.95052 -3.2659,7.69457 -7.40527,7.96157 -1.25422,0.0809 -2.47121,-0.0394 -3.21776,-0.31799 z"
       id="path875" />
  </g>
</svg>
